<svg width="551" height="551" viewBox="0 0 551 551" fill="none" xmlns="http://www.w3.org/2000/svg">
<path d="M68.3158 485.158H34.3684V549.105H2.39474V452.789M2.39474 452.789H34.3684M2.39474 452.789V356.474M2.39474 356.474H37.1316M2.39474 356.474V130.684M2.39474 130.684H36.7368M2.39474 130.684L2.19737 66.3421M517.526 482.395V549.5H549.105L549.221 388.447M549.221 388.447H517.526V260.158H482.395M549.221 388.447L549.337 227.789M549.337 227.789H453.184V291.737H488.316M549.337 227.789L549.384 163.25M2.19737 66.3421L2 2H195.421M2.19737 66.3421H69.1053M195.421 2V66.3421M195.421 2H259.763M195.026 195.026H227V163.053M195.026 195.026V227.395H163.053V259.941H131.079V226.605M195.026 195.026V162.658H163.053M195.421 66.3421V130.684L227 131.079V163.053M195.421 66.3421H163.249L163.053 34.3684L32 33.9737M227 163.053L259.763 162.658M259.763 162.658L259.368 98.3158H224.632M259.763 162.658H323.711V195.026H356.079V227.395H388.842M163.053 162.658V130.684M163.053 162.658V197.789M163.053 95.7906V130.684M163.053 130.684H66.3421M66.3421 130.684V98.7105M66.3421 130.684V163.053H34.3684V323.711H66.3421M66.3421 98.7105H98.3158V67.1316L131.079 66.7368V101.474M66.3421 98.7105H31.6053M66.3421 323.711V289.368M66.3421 323.711V388.842M66.3421 388.842H130.684V421.211H95.9474M66.3421 388.842H34.3684V420.421H66.3421V452.789H98.3158V485.158H131.079M131.079 485.158V452.789H197.789M131.079 485.158V517.132H163.053M163.053 517.132V549.5M163.053 517.132V485.158H227.395M163.053 549.5H66.3421V517.526H101.474M163.053 549.5H195.026M358.842 485.158H227.395M227.395 485.158V519.895M195.026 549.5V515.158M195.026 549.5H259.368V514.763M259.763 2V34.3684M259.763 2H324.105M227.395 31.6053V66.7368H259.763V34.3684M259.763 34.3684H294.5M324.105 2V66.7368H292.526L292.132 130.684H326.868M324.105 2H452.789M452.789 2H549.5L549.43 98.7105M452.789 2V36.7368M549.43 98.7105H485.553M549.43 98.7105L549.384 163.25M485.553 98.7105V66.7368M485.553 98.7105V130.684M517.132 68.7105V34.7632H485.553V66.7368M420.421 227.395V195.026H453.184V163.447H388.447M420.421 227.395V293.711M420.421 227.395H388.842M388.447 163.447V197.789M388.447 163.447H356.474V98.7105M356.474 98.7105H388.053V133.447M356.474 98.7105H321.737M388.842 227.395V324.105M388.842 324.105H356.474V356.079H324.105V388.447M388.842 324.105H485.158V356.474M388.842 324.105V420.421H420.816M324.105 423.184V388.447M485.158 390.816V356.474M485.158 356.474H420.816V391.211M517.526 418.053V452.789H485.158V420.421H452.789M452.789 420.421V386.079M452.789 420.421H420.816M420.816 420.421V485.158H452.789M452.789 485.158V450.421M452.789 485.158V520.289M452.789 485.158H485.553V549.5H420.816M358.842 517.526H292.132V549.5H420.816M420.816 549.5V517.526H388.447V482.547M324.105 388.447H259.763M195.421 356.474H227.395V388.447H259.763M195.421 356.474V420.816M195.421 356.474V324.105H162.658M195.421 420.816H230.158M195.421 420.816H163.053V386.079M128.316 324.105H162.658M162.658 324.105V292.132H98.7105M98.7105 292.132V356.079H165.816M98.7105 292.132V259.941H66.3421V195.026H98.7105M98.7105 195.026V230.158M98.7105 195.026V163.053H131.079V197.789M259.763 388.447V420.816H291.737V452.789M291.737 452.789H225.026M291.737 452.789H356.474M390.816 452.789H356.474M356.474 452.789V386.079M485.553 66.7368H452.789M391.211 66.3421H356.079V34.1558H421.211V66.7368H452.789M452.789 66.7368V101.474M519.895 195.026H485.553V130.684M485.553 130.684H420.816V95.5526M485.553 130.684H519.895M549.384 163.25H514.368" stroke="#204056" stroke-width="3"/>
<path d="M309.415 239.842C309.415 243.75 308.497 246.607 306.943 248.65C306.913 248.694 306.898 248.724 306.869 248.753C303.642 252.928 297.81 253.697 292.036 253.135C287.078 252.661 282.163 251.211 278.966 250.1C279.499 248.887 279.81 247.377 279.81 245.763C279.81 242.581 278.611 239.872 276.908 238.821C283.555 234.676 309.4 219.429 309.415 239.842V239.842Z" fill="#D00000"/>
<path d="M279.66 247.589C279.521 248.505 279.291 249.362 278.966 250.101C282.163 251.211 287.078 252.661 292.037 253.135C297.81 253.698 303.642 252.928 306.869 248.754C306.898 248.724 306.913 248.694 306.943 248.65C308.497 246.607 309.415 243.75 309.415 239.842C309.413 238.497 309.295 237.316 309.082 236.268C304.166 246.248 290.598 248.141 279.66 247.589V247.589Z" fill="#BC0404"/>
<path d="M241.322 239.842C241.367 219.474 267.212 234.705 273.829 238.821C272.127 239.872 270.928 242.58 270.928 245.763C270.928 247.377 271.239 248.886 271.771 250.1C268.574 251.21 263.66 252.661 258.701 253.135C252.913 253.697 247.066 252.928 243.839 248.724C242.27 246.666 241.308 243.794 241.322 239.842V239.842Z" fill="#D00000"/>
<path d="M242.985 232.856C241.941 234.473 241.33 236.739 241.322 239.842C241.308 243.794 242.27 246.666 243.839 248.723C247.066 252.927 252.913 253.697 258.701 253.135C263.66 252.661 268.574 251.21 271.771 250.1C271.431 249.326 271.196 248.423 271.059 247.458C259.731 247.036 248.678 242.807 242.985 232.856V232.856Z" fill="#BC0404"/>
<path d="M275.369 253.165C277.821 253.165 279.809 249.851 279.809 245.764C279.809 241.676 277.821 238.362 275.369 238.362C272.916 238.362 270.928 241.676 270.928 245.764C270.928 249.851 272.916 253.165 275.369 253.165Z" fill="#DC2F02"/>
<path d="M279.809 245.763C279.809 249.849 277.826 253.165 275.369 253.165C272.911 253.165 270.928 249.849 270.928 245.763C270.928 244.993 271.002 244.253 271.135 243.558C271.697 246.548 273.385 248.724 275.369 248.724C277.352 248.724 279.04 246.548 279.602 243.558C279.735 244.253 279.809 244.993 279.809 245.763Z" fill="#D00000"/>
<path d="M284.25 270.928H289.579L289.682 270.913C290.215 273.888 290.422 277.323 290.171 281.29L294.612 276.849L300.533 282.77C300.533 282.77 300.755 277.5 299.571 270.928H299.585H316.816V318.296C316.816 319.925 315.483 321.257 313.855 321.257H282.77V270.928H284.25Z" fill="#FFC008"/>
<path d="M267.967 270.928V321.257H236.881C235.253 321.257 233.921 319.925 233.921 318.296V270.928H251.151H251.166C249.982 277.5 250.204 282.77 250.204 282.77L256.125 276.849L260.566 281.29C260.314 277.323 260.521 273.888 261.054 270.913L261.158 270.928H266.487H267.967Z" fill="#FFC008"/>
<path d="M267.968 270.928H282.77V321.257H267.968V270.928Z" fill="#D00000"/>
<path d="M251.166 270.928C250.885 272.497 250.677 274.007 250.544 275.369H233.921V270.928H251.166Z" fill="#FF9700"/>
<path d="M267.967 270.928V275.369H260.551C260.625 273.77 260.802 272.29 261.054 270.913L261.158 270.928H267.967Z" fill="#FF9700"/>
<path d="M267.968 270.928H282.77V275.369H267.968V270.928Z" fill="#890711"/>
<path d="M290.186 275.369H282.77V270.928H289.579L289.682 270.913C289.934 272.29 290.112 273.77 290.186 275.369V275.369Z" fill="#FF9700"/>
<path d="M321.257 250.233V269.447C321.257 270.261 320.59 270.927 319.776 270.927H316.816H299.585H299.571C298.549 265.08 296.403 258.227 292.036 253.135C297.809 253.697 303.641 252.927 306.868 248.753H319.776C320.59 248.753 321.257 249.419 321.257 250.233Z" fill="#FBDE08"/>
<path d="M289.683 270.913L289.579 270.928H284.25V258.36C286.515 261.128 288.691 265.155 289.683 270.913Z" fill="#FBDE08"/>
<path d="M321.257 250.233V269.447C321.257 270.261 320.591 270.927 319.776 270.927H299.571C299.393 269.965 299.201 268.973 298.964 267.967H313.775C316.273 267.967 318.296 265.943 318.296 263.446V248.753H319.776C320.591 248.753 321.257 249.419 321.257 250.233V250.233Z" fill="#F9AF0B"/>
<path d="M289.683 270.913L289.579 270.927H284.25V267.967H289.046C289.298 268.899 289.505 269.876 289.683 270.913Z" fill="#F9AF0B"/>
<path d="M266.487 258.36V270.928H261.158L261.055 270.913C262.046 265.155 264.222 261.128 266.487 258.36V258.36Z" fill="#FBDE08"/>
<path d="M243.839 248.724C247.066 252.928 252.913 253.697 258.701 253.135C254.334 258.227 252.188 265.081 251.166 270.928H251.152H233.921H230.961C230.147 270.928 229.48 270.261 229.48 269.447V250.204C229.48 249.39 230.147 248.724 230.961 248.724H243.839Z" fill="#FBDE08"/>
<path d="M267.967 315.336V321.257H236.881C235.253 321.257 233.921 319.925 233.921 318.296V315.336H267.967Z" fill="#FF9700"/>
<path d="M267.968 315.336H282.77V321.257H267.968V315.336Z" fill="#9D0208"/>
<path d="M273.889 252.75C274.348 253.016 274.851 253.164 275.369 253.164C275.887 253.164 276.375 253.016 276.834 252.75C276.834 252.75 280.668 254.008 284.25 258.36V270.928H282.77H267.968H266.487V258.36C270.055 254.008 273.889 252.75 273.889 252.75Z" fill="#BC0404"/>
<path d="M266.487 267.967V270.927H261.158L261.055 270.913C261.232 269.876 261.44 268.899 261.691 267.967H266.487Z" fill="#F9AF0B"/>
<path d="M251.773 267.967C251.536 268.973 251.344 269.965 251.166 270.927H230.961C230.147 270.927 229.48 270.261 229.48 269.447V267.967H251.773Z" fill="#F9AF0B"/>
<path d="M266.487 267.967H284.25V270.927H266.487V267.967Z" fill="#9D0208"/>
<path d="M284.25 258.36V262.801C280.668 258.449 276.834 257.191 276.834 257.191C276.375 257.457 275.887 257.605 275.369 257.605C274.851 257.605 274.348 257.457 273.889 257.191C273.889 257.191 270.055 258.449 266.487 262.801V258.36C270.055 254.008 273.889 252.75 273.889 252.75C274.348 253.016 274.851 253.164 275.369 253.164C275.887 253.164 276.375 253.016 276.834 252.75C276.834 252.75 280.668 254.008 284.25 258.36Z" fill="#890711"/>
<path d="M299.571 270.928C300.755 277.5 300.533 282.77 300.533 282.77L294.612 276.849L290.171 281.29C290.423 277.323 290.216 273.888 289.683 270.913C288.691 265.155 286.515 261.129 284.25 258.36C280.668 254.008 276.834 252.75 276.834 252.75C277.707 252.247 278.447 251.314 278.966 250.101C282.163 251.211 287.077 252.661 292.036 253.135C296.403 258.227 298.549 265.081 299.571 270.928V270.928Z" fill="#D00000"/>
<path d="M293.213 282.487C293.256 281.016 293.232 279.623 293.146 278.314L294.612 276.849L297.572 279.809L294.39 282.992C293.95 283.431 293.195 283.109 293.213 282.487V282.487Z" fill="#FF9700"/>
<path d="M299.571 270.928C299.852 272.497 300.059 274.007 300.192 275.369H300.2C300.66 279.719 300.533 282.77 300.533 282.77L302.035 284.272C302.58 284.817 303.514 284.428 303.499 283.657C303.462 281.79 303.308 278.816 302.777 275.369H303.493C307.58 275.369 310.895 278.683 310.895 282.77V312.375C310.895 314.011 309.57 315.336 307.934 315.336H282.77V321.257H313.855C315.483 321.257 316.816 319.924 316.816 318.296V270.928H299.571Z" fill="#FF9700"/>
<path d="M301.924 270.928H299.571C298.549 265.08 296.403 258.227 292.036 253.135C293.102 253.238 294.153 253.298 295.204 253.298C298.179 258.538 300.962 266.798 301.924 270.928V270.928Z" fill="#F9AF0B"/>
<path d="M295.086 257.561C290.038 257.176 285.049 256.214 281.142 255.282C278.744 253.372 276.834 252.75 276.834 252.75C277.707 252.247 278.447 251.314 278.966 250.101C282.163 251.211 287.077 252.661 292.036 253.135C293.206 254.497 294.227 255.992 295.086 257.561V257.561Z" fill="#9D0208"/>
<path d="M271.771 250.101C272.29 251.3 273.03 252.232 273.888 252.75C273.888 252.75 270.054 254.008 266.487 258.36C264.222 261.129 262.046 265.155 261.054 270.913C260.521 273.888 260.314 277.323 260.566 281.29L256.125 276.849L250.204 282.77C250.204 282.77 249.982 277.5 251.166 270.928C252.188 265.081 254.334 258.227 258.701 253.135C263.66 252.661 268.574 251.211 271.771 250.101Z" fill="#D00000"/>
<path d="M262.535 273.874C262.076 276.434 261.859 279.334 261.968 282.62C261.987 283.196 261.305 283.507 260.898 283.102L257.606 279.809L252.746 284.669C252.348 285.067 251.666 284.792 251.67 284.228C251.676 283.461 251.701 282.431 251.774 281.201L256.126 276.849L260.566 281.29C260.315 277.323 260.522 273.888 261.055 270.913L261.158 270.928H263.172C262.92 271.86 262.713 272.837 262.535 273.874V273.874Z" fill="#FF7F00"/>
<path d="M266.487 258.36V263.349C265.199 265.347 264 267.849 263.171 270.928H261.158L261.055 270.913C262.046 265.155 264.222 261.128 266.487 258.36Z" fill="#F9AF0B"/>
<path d="M273.888 252.75C273.888 252.75 271.979 253.372 269.595 255.282C265.688 256.214 260.699 257.176 255.651 257.561C256.51 255.992 257.531 254.497 258.701 253.135C263.66 252.661 268.574 251.211 271.771 250.101C272.29 251.3 273.03 252.232 273.888 252.75V252.75Z" fill="#9D0208"/>
<path d="M274.179 242.111C273.225 242.111 272.934 244.283 273.889 244.283C274.84 244.283 275.132 242.111 274.179 242.111Z" fill="#F75B3C"/>
<path d="M234.585 250.841C233.414 250.657 232.501 251.578 232.033 252.75C231.373 254.405 231.204 256.578 232.859 256.837C234.087 257.03 233.766 255.353 234.21 254.099C234.786 252.469 236.182 251.089 234.585 250.841V250.841Z" fill="#F7EDC6"/>
<path d="M249.078 232.474C246.221 232.474 242.901 236.882 245.764 236.882C248.62 236.882 251.941 232.474 249.078 232.474Z" fill="#F75B3C"/>
<path d="M232.847 257.413C231.895 257.413 231.892 258.893 232.847 258.893C233.8 258.893 233.802 257.413 232.847 257.413Z" fill="#F7EDC6"/>
</svg>
